<?xml version="1.0" encoding="UTF-8"?>
<svg version="1.1" xmlns="http://www.w3.org/2000/svg" width="1024" height="1024">
<path d="M0 0 C337.92 0 675.84 0 1024 0 C1024 337.92 1024 675.84 1024 1024 C686.08 1024 348.16 1024 0 1024 C0 686.08 0 348.16 0 0 Z " fill="#FEFEFE" transform="translate(0,0)"/>
<path d="M0 0 C1.62035156 -0.02900391 1.62035156 -0.02900391 3.2734375 -0.05859375 C11.19065211 1.11330165 16.34845454 6.69374419 21.78125 12.125 C22.52838257 12.86451904 23.27551514 13.60403809 24.04528809 14.3659668 C25.61216019 15.92208385 27.17513163 17.4821374 28.734375 19.04589844 C31.13148232 21.44398497 33.54920875 23.81988769 35.96875 26.1953125 C37.49088063 27.71224104 39.01175958 29.23042681 40.53125 30.75 C41.2581604 31.46051514 41.9850708 32.17103027 42.73400879 32.90307617 C43.39219604 33.57056885 44.0503833 34.23806152 44.72851562 34.92578125 C45.31362915 35.50884033 45.89874268 36.09189941 46.50158691 36.69262695 C47.625 38.4375 47.625 38.4375 47.35890961 40.36073112 C46.09132932 43.94764601 43.13494421 46.30609741 40.46875 48.91845703 C39.50533691 49.8801178 39.50533691 49.8801178 38.52246094 50.86120605 C36.39685583 52.97962064 34.26093932 55.08732242 32.125 57.1953125 C30.64836473 58.66381315 29.17246266 60.13305139 27.69726562 61.60299683 C23.81108998 65.47204338 19.91643492 69.33243625 16.01953125 73.19067383 C9.77941142 79.3716245 3.55191587 85.56528866 -2.67504883 91.75948715 C-4.85554277 93.9259802 -7.03978584 96.08863719 -9.22460938 98.25076294 C-10.55607073 99.57220421 -11.88745517 100.89372299 -13.21875 102.21533203 C-13.83073242 102.81900604 -14.44271484 103.42268005 -15.07324219 104.04464722 C-19.07179973 107.94462446 -19.07179973 107.94462446 -20.875 113.0625 C-19.54750335 122.02310239 -7.60572421 130.26357846 -1.30737305 136.4580307 C1.42011408 139.14309382 4.13798878 141.83780163 6.85653687 144.53190994 C11.90403267 149.53379223 16.95548021 154.53152997 22.02294922 159.51318359 C25.56249365 162.99351662 29.0898575 166.48578666 32.60934448 169.98639679 C33.95094607 171.31623252 35.29707757 172.64151407 36.6477356 173.96215057 C38.5267548 175.8003902 40.38987703 177.65341193 42.25 179.51074219 C42.81299301 180.05418777 43.37598602 180.59763336 43.95603943 181.157547 C47.61472169 184.85580877 47.61472169 184.85580877 47.66288757 187.58171082 C46.45287123 189.74527391 45.14591588 191.29781469 43.39379883 193.05688477 C42.71251419 193.74762589 42.03122955 194.438367 41.32929993 195.15003967 C40.21690193 196.25332863 40.21690193 196.25332863 39.08203125 197.37890625 C38.32081467 198.14299301 37.55959808 198.90707977 36.77531433 199.69432068 C35.16241121 201.30926557 33.54571223 202.92042694 31.92553711 204.52807617 C29.45401304 206.9835939 26.99882015 209.4546169 24.54492188 211.92773438 C22.97491892 213.49575406 21.40398515 215.06284241 19.83203125 216.62890625 C19.10055374 217.36645645 18.36907623 218.10400665 17.61543274 218.86390686 C12.62785514 223.78382039 8.04719647 227.8630718 0.6875 227.875 C-0.10527344 227.89433594 -0.89804688 227.91367187 -1.71484375 227.93359375 C-10.42663866 226.30892715 -16.23006881 218.98913037 -22.17553711 212.97753906 C-23.24980267 211.90242629 -24.32473123 210.82797564 -25.40026855 209.75413513 C-28.3052762 206.84998519 -31.20096657 203.93670531 -34.09502864 201.02165318 C-37.12587503 197.97200261 -40.16526785 194.93089377 -43.20375061 191.88885498 C-48.95048641 186.1328097 -54.68953451 180.36916265 -60.42583615 174.60272098 C-66.95922531 168.03575364 -73.50117543 161.47734308 -80.04384601 154.91962481 C-93.49708805 141.4350586 -106.93958265 127.93982485 -120.375 114.4375 C-118.86540813 110.90164633 -116.81266913 108.62381606 -114.10600281 105.91453552 C-113.21016479 105.01305786 -112.31432678 104.1115802 -111.39134216 103.18278503 C-110.39600478 102.19133613 -109.40056367 101.19999134 -108.4050293 100.20874023 C-107.35825778 99.15925808 -106.31191208 98.10935104 -105.26596069 97.05905151 C-102.42546667 94.20943876 -99.57868095 91.36619023 -96.73045707 88.52430606 C-93.74958609 85.54849905 -90.77359852 82.56781482 -87.79682922 79.58790588 C-82.79596262 74.58340023 -77.7908931 69.58312702 -72.78344727 64.58520508 C-66.99709807 58.80973435 -61.21798107 53.02710199 -55.44257993 47.24068493 C-50.48227996 42.27130325 -45.51808572 37.30583708 -40.55062801 32.34361035 C-37.584504 29.38060193 -34.61974195 26.4162647 -31.65848351 23.44839287 C-28.87313175 20.65725567 -26.08291721 17.87107203 -23.2889061 15.08860397 C-22.26529039 14.06762868 -21.24336522 13.04495517 -20.22327995 12.0204525 C-18.82847138 10.62016272 -17.42686467 9.22665434 -16.02494812 7.83348083 C-15.24309993 7.05238669 -14.46125174 6.27129255 -13.65571117 5.46652889 C-9.20790103 1.50954592 -5.97092028 0.00709135 0 0 Z " fill="#FDFEFE" transform="translate(224.375,398.5625)"/>
<path d="M0 0 C0.70382813 -0.02320313 1.40765625 -0.04640625 2.1328125 -0.0703125 C14.49574682 0.06262228 23.78608337 8.6309416 31.98046875 16.93359375 C32.96896402 17.91803375 33.9583473 18.90158277 34.94856262 19.8842926 C37.00104977 21.92801807 39.04250346 23.98198288 41.07641602 26.04418945 C43.67641604 28.67859944 46.3027554 31.28483888 48.93780041 33.88413906 C50.9776538 35.90227724 53.00296038 37.93452964 55.02419472 39.97130013 C55.98740616 40.93849306 56.95503669 41.9013071 57.92723656 42.85946465 C66.38835342 51.22487439 66.38835342 51.22487439 67.3449707 55.51977539 C66.62432032 62.26777623 61.19760225 66.83541183 56.57910156 71.39794922 C55.94453537 72.03280746 55.30996918 72.66766571 54.65617371 73.32176208 C52.57236634 75.40418401 50.48158065 77.47944537 48.390625 79.5546875 C46.93858916 81.00299043 45.48699631 82.45173762 44.03582764 83.90090942 C40.22623164 87.70289096 36.41066651 91.49882633 32.59381104 95.29351807 C28.69562411 99.17119944 24.80313456 103.05459072 20.91015625 106.9375 C13.27899101 114.54725392 5.64150518 122.15063021 -2 129.75 C1.9108767 134.44413565 5.98676543 138.85730891 10.35668945 143.125 C11.60679996 144.355465 12.85690659 145.58593393 14.10700989 146.81640625 C14.76006418 147.45723145 15.41311848 148.09805664 16.0859623 148.75830078 C19.57250338 152.18358378 23.04355034 155.62453473 26.51757812 159.0625 C30.92532683 163.42228866 35.33748342 167.77735721 39.76489258 172.1171875 C43.35745454 175.63948652 46.93517645 179.17626853 50.50346947 182.72314453 C51.86206189 184.06816218 53.22604912 185.40775358 54.5955143 186.74169922 C56.50789501 188.60578206 58.40075796 190.48779253 60.2902832 192.375 C61.14036957 193.19037231 61.14036957 193.19037231 62.00762939 194.0222168 C64.69235911 196.74245276 65.98732479 198.70524582 67.03594971 202.40777588 C66.99597909 206.12382182 66.70880648 207.03586544 64.13452148 209.60058594 C63.15683304 210.60696106 63.15683304 210.60696106 62.15939331 211.63366699 C61.44679352 212.33205688 60.73419373 213.03044678 60 213.75 C58.55306921 215.25515175 57.10655135 216.76070054 55.66040039 218.26660156 C54.05922922 219.89430849 52.45483841 221.51885298 50.84765625 223.140625 C49.98869247 224.00766052 49.1297287 224.87469604 48.24473572 225.76800537 C46.43847708 227.58801342 44.63071873 229.40653422 42.8215332 231.22363281 C40.97948127 233.07725768 39.14191861 234.93535444 37.30883789 236.79785156 C34.64404335 239.50532287 31.96623751 242.19929197 29.28515625 244.890625 C28.47345474 245.71983459 27.66175323 246.54904419 26.82545471 247.40338135 C19.19104386 255.00907041 10.81877064 259.98868509 -0.25 260.125 C-16.07280056 259.83698543 -25.72597123 249.32657914 -36.24951172 238.7434082 C-37.36031193 237.63368274 -38.47154539 236.5243908 -39.58317566 235.41549683 C-42.58112441 232.42236633 -45.57283344 229.4230714 -48.56327581 226.42244363 C-51.69937056 223.27752624 -54.84077577 220.13792138 -57.98147583 216.99760437 C-63.24855505 211.7295909 -68.51175952 206.45773163 -73.77246094 201.18334961 C-79.85517631 195.08487456 -85.94313721 188.99167663 -92.03410327 182.90144283 C-98.52549702 176.41072407 -105.01308003 169.91620674 -111.49954081 163.42055869 C-113.3678091 161.55015894 -115.23678728 159.68047105 -117.1059227 157.81093788 C-120.03856985 154.87728729 -122.96865705 151.94110333 -125.89676857 149.00292587 C-126.97225648 147.92451466 -128.04859387 146.84694986 -129.12583351 145.77028847 C-130.59401871 144.30259326 -132.05909759 142.8318664 -133.52340698 141.36030579 C-134.34447371 140.53756322 -135.16554043 139.71482065 -136.01148796 138.86714649 C-138.66468703 136.04231516 -139.91882435 134.10230382 -140.7958374 130.29605103 C-140.56582658 123.32155281 -133.93005405 118.59102085 -129.26660156 114.01318359 C-128.11199364 112.85100571 -126.95910679 111.6871158 -125.80781555 110.52165222 C-122.67875071 107.36467351 -119.52509982 104.2333756 -116.3656168 101.1068759 C-113.055437 97.82444038 -109.76564526 94.52167903 -106.47283936 91.22183228 C-100.93478764 85.6783759 -95.38077914 80.15130943 -89.81689453 74.63378906 C-83.40218985 68.2721733 -77.01255971 61.88621011 -70.63612962 55.48624742 C-64.48744018 49.31591736 -58.32179377 43.16280498 -52.14818573 37.01741409 C-49.52903244 34.40972026 -46.91573407 31.7963642 -44.3070755 29.17817307 C-41.22471091 26.08618862 -38.12762321 23.00971172 -35.01906395 19.94407082 C-33.88693533 18.82297495 -32.75972023 17.69688936 -31.63813972 16.56524086 C-22.79786177 7.65566283 -13.2271313 -0.43605927 0 0 Z M-25.63867188 33.16162109 C-26.68374346 34.20725787 -27.72925771 35.25245238 -28.775177 36.29724121 C-31.59315729 39.11465119 -34.40495833 41.93815407 -37.2156353 44.76284742 C-40.16151135 47.72128485 -43.11310888 50.67400311 -46.06408691 53.62734985 C-51.64232024 59.21178212 -57.21543867 64.8012898 -62.7867074 70.39266932 C-69.13346194 76.76183237 -75.48594354 83.12527031 -81.83889675 89.48824954 C-94.89895051 102.56916936 -107.95184647 115.65721028 -121 128.75 C-119.48605861 132.3005957 -117.4147424 134.5888702 -114.69976807 137.31092834 C-113.79696106 138.22082016 -112.89415405 139.13071198 -111.96398926 140.06817627 C-110.96079758 141.0690742 -109.95749805 142.06986404 -108.95410156 143.07055664 C-107.89910763 144.12989865 -106.84453218 145.18965756 -105.79034424 146.24980164 C-102.9271637 149.12637422 -100.05760821 151.99650601 -97.18645954 154.86512303 C-94.78909652 157.26141632 -92.39471679 159.6606796 -90.00028586 162.05990213 C-84.35019694 167.72108731 -78.69479443 173.37692571 -73.03613281 179.02954102 C-67.20164672 184.85798857 -61.37639349 190.69554831 -55.55558801 196.53765589 C-50.55538949 201.55547831 -45.54939428 206.56746566 -40.53874946 211.5748567 C-37.54726103 214.56453313 -34.55803508 217.556386 -31.57440948 220.55391121 C-28.76740786 223.37349903 -25.95322726 226.18572002 -23.13341522 228.99249458 C-22.10127772 230.02226836 -21.0716781 231.05459327 -20.04486084 232.08967209 C-18.63959944 233.50541915 -17.22410266 234.91098444 -15.8081665 236.3160553 C-15.01986576 237.10452378 -14.23156502 237.89299227 -13.41937637 238.70535374 C-9.4116985 242.09229414 -5.41044227 244.18068272 -0.125 244.25 C0.65617187 244.2809375 1.43734375 244.311875 2.2421875 244.34375 C10.00257515 242.67295833 15.8308714 236.38633048 21.25390625 230.96484375 C21.99962387 230.22673965 22.74534149 229.48863556 23.51365662 228.72816467 C25.07454445 227.17801607 26.63155073 225.62395006 28.18481445 224.06616211 C30.5730501 221.67694557 32.98193302 219.30993866 35.39257812 216.94335938 C36.91015093 215.43098761 38.42647313 213.91735966 39.94140625 212.40234375 C40.6651796 211.69496567 41.38895294 210.98758759 42.13465881 210.2587738 C43.11709816 209.26237633 43.11709816 209.26237633 44.11938477 208.24584961 C44.70148209 207.66580673 45.28357941 207.08576385 45.88331604 206.48814392 C47.22214858 204.81886588 47.22214858 204.81886588 46.73348904 202.82718945 C45.46672247 199.23979549 42.51002263 196.88147943 39.84375 194.26904297 C39.20147461 193.62793579 38.55919922 192.98682861 37.89746094 192.32629395 C35.77185583 190.20787936 33.63593932 188.10017758 31.5 185.9921875 C30.02336473 184.52368685 28.54746266 183.05444861 27.07226562 181.58450317 C23.18608998 177.71545662 19.29143492 173.85506375 15.39453125 169.99682617 C9.15441142 163.8158755 2.92691587 157.62221134 -3.30004883 151.42801285 C-5.48054277 149.2615198 -7.66478584 147.09886281 -9.84960938 144.93673706 C-11.18107073 143.61529579 -12.51245517 142.29377701 -13.84375 140.97216797 C-14.45573242 140.36849396 -15.06771484 139.76481995 -15.69824219 139.14285278 C-20.73694995 134.13101277 -20.73694995 134.13101277 -21.5 130.125 C-20.17250335 121.16439761 -8.23072421 112.92392154 -1.93237305 106.7294693 C0.79511408 104.04440618 3.51298878 101.34969837 6.23153687 98.65559006 C11.27903267 93.65370777 16.33048021 88.65597003 21.39794922 83.67431641 C24.93749365 80.19398338 28.4648575 76.70171334 31.98434448 73.20110321 C33.32594607 71.87126748 34.67207757 70.54598593 36.0227356 69.22534943 C37.9017548 67.3871098 39.76487703 65.53408807 41.625 63.67675781 C42.18799301 63.13331223 42.75098602 62.58986664 43.33103943 62.029953 C46.1905435 59.29299667 46.1905435 59.29299667 47.03215027 55.60005188 C45.84624474 53.47440525 44.58069592 51.94954604 42.8605957 50.22241211 C41.86869987 49.21633156 41.86869987 49.21633156 40.85676575 48.18992615 C40.13704086 47.47627396 39.41731598 46.76262177 38.67578125 46.02734375 C37.93676071 45.28545303 37.19774017 44.54356232 36.43632507 43.77919006 C34.87050026 42.21132366 33.30088011 40.64723987 31.7277832 39.08666992 C29.3286837 36.70357573 26.94592687 34.30498997 24.56445312 31.90429688 C23.04002304 30.3818501 21.51466214 28.86033467 19.98828125 27.33984375 C18.92387566 26.26632912 18.92387566 26.26632912 17.83796692 25.17112732 C12.30035362 19.71086177 7.66589543 16.3335211 -0.375 16.1875 C-1.43460937 16.14496094 -2.49421875 16.10242188 -3.5859375 16.05859375 C-12.58972788 17.88201583 -19.41996146 26.89528126 -25.63867188 33.16162109 Z " fill="#246EB4" transform="translate(225,382.25)"/>
<path d="M0 0 C6.84274147 4.80904188 12.66292275 11.44446918 18.58276367 17.3425293 C20.18811926 18.93811549 21.80385637 20.5226935 23.41992188 22.10742188 C32.71467768 31.30696972 38.91576625 39.1507553 39.375 52.75 C39.0595114 70.23177986 27.78244363 79.45296872 16.26586914 91.08422852 C15.03979621 92.32700053 13.81913324 93.57513155 12.60375977 94.82836914 C10.82988489 96.65695653 9.04015716 98.46858587 7.24609375 100.27734375 C6.7084288 100.83767807 6.17076385 101.39801239 5.61680603 101.97532654 C3.27550609 104.30373253 1.12750675 105.94286483 -1.89038086 107.29516602 C-6.96315027 106.81365717 -9.50577941 103.4961588 -13 100 C-13.77907715 99.2572583 -14.5581543 98.5145166 -15.36083984 97.74926758 C-20.96807749 92.39939873 -26.46738579 86.93691365 -31.97509766 81.48486328 C-33.99694199 79.48545023 -36.02814197 77.49629815 -38.06787109 75.51513672 C-41.02333847 72.64428972 -43.94977934 69.74541471 -46.875 66.84375 C-47.79047607 65.96126587 -48.70595215 65.07878174 -49.64916992 64.16955566 C-55.69109654 58.10810135 -55.69109654 58.10810135 -57.0078125 53.38476562 C-55.52599475 48.40804051 -52.63510003 45.61044829 -49 42 C-48.27283783 41.25009796 -47.54567566 40.50019592 -46.79647827 39.72756958 C-44.35773466 37.22532886 -41.89158525 34.75291245 -39.41796875 32.28515625 C-38.07488396 30.94063637 -38.07488396 30.94063637 -36.70466614 29.56895447 C-34.82589224 27.68950398 -32.94616009 25.81107813 -31.06469727 23.93432617 C-28.65258227 21.52795724 -26.24505193 19.11705876 -23.83878613 16.70484257 C-21.53426977 14.39585567 -19.2259604 12.09066856 -16.91796875 9.78515625 C-16.05342575 8.91858902 -15.18888275 8.05202179 -14.29814148 7.15919495 C-13.50003555 6.36424118 -12.70192963 5.56928741 -11.87963867 4.75024414 C-11.17683273 4.0482338 -10.47402679 3.34622345 -9.74992371 2.62294006 C-6.5771544 -0.31959646 -4.26544317 -0.63191751 0 0 Z " fill="#E42729" transform="translate(315,459)"/>
<path d="M0 0 C9.68505541 6.99325928 16.95501198 16.04855363 19 28 C20.26157544 39.67658156 17.95278087 50.61896504 11.3125 60.4375 C4.88642266 68.09305642 -3.57887542 72.20075212 -13 75 C-13.60972656 75.19207031 -14.21945312 75.38414062 -14.84765625 75.58203125 C-28.29110035 78.19264562 -40.32900004 74.95266453 -51.71875 67.671875 C-60.08897291 61.53753355 -65.69886955 52.19293691 -67.33398438 41.89697266 C-68.51966655 29.87426418 -65.84403321 20.10162858 -58.8125 10.1875 C-44.9504288 -6.3392026 -18.74650521 -11.23219376 0 0 Z " fill="#040404" transform="translate(864,538)"/>
<path d="M0 0 C0.75539063 -0.00773437 1.51078125 -0.01546875 2.2890625 -0.0234375 C14.51353436 0.01857099 28.21138936 4.51609025 37 13.25 C41.12850606 18.23799931 44.80421938 23.11734 47 29.25 C44.56568361 30.42374173 42.12795818 31.58915763 39.6875 32.75 C38.99720703 33.08386719 38.30691406 33.41773438 37.59570312 33.76171875 C32.33984375 36.25 32.33984375 36.25 29 36.25 C28.72027344 35.66992188 28.44054687 35.08984375 28.15234375 34.4921875 C23.83532896 26.08025515 18.70689347 21.18786572 9.7421875 17.9453125 C2.26595236 16.04962895 -5.01645866 16.35997677 -11.90625 19.9296875 C-21.31206944 25.86096916 -26.50787958 33.41037889 -29 44.25 C-29.27186182 47.56783818 -29.27995348 50.86016796 -29.25 54.1875 C-29.25773437 55.04279297 -29.26546875 55.89808594 -29.2734375 56.77929688 C-29.2429831 66.76072727 -26.94816059 76.69891228 -20.140625 84.3359375 C-12.50539994 91.34969075 -5.16246774 92.91641727 5.0390625 92.6015625 C11.79144235 92.00223885 16.71267425 90.18925444 21.875 85.8125 C22.926875 84.5440625 22.926875 84.5440625 24 83.25 C24.70125 82.445625 25.4025 81.64125 26.125 80.8125 C28.12288755 78.08205368 29.5214245 75.28650957 31 72.25 C33.08630053 73.01276595 35.1689432 73.78554157 37.25 74.5625 C38.41015625 74.99175781 39.5703125 75.42101562 40.765625 75.86328125 C43.5941299 77.07598565 45.66536544 78.27942974 48 80.25 C42.27892955 93.25243285 34.88519121 101.6967174 21.609375 107.25 C7.63531472 112.193205 -9.40402134 112.19709699 -23 106.25 C-36.79629175 99.24631921 -44.55592155 89.6100409 -50 75.25 C-54.58040207 61.12907134 -53.33017124 42.38783298 -46.9375 29.125 C-40.56651811 16.76731767 -30.21166093 6.89854737 -17 2.25 C-11.18905497 0.56395492 -6.03607253 -0.06180279 0 0 Z " fill="#030303" transform="translate(461,503.75)"/>
<path d="M0 0 C7.85052061 5.89154526 11.36150197 13.76525689 14 23 C14.495 31.415 14.495 31.415 15 40 C-4.14 40 -23.28 40 -43 40 C-40.92638019 50.75504474 -40.92638019 50.75504474 -35 58 C-28.25504944 62.03918396 -21.6592161 61.8793306 -14 61 C-8.39680933 58.93700707 -5.22738344 55.22738344 -1 51 C3.29 52.98 7.58 54.96 12 57 C10.7113979 63.44301051 8.00228721 65.95577797 3 70 C-7.61176145 76.48496533 -22.11437402 77.97707987 -34.08984375 75.3125 C-43.74291422 72.06321962 -51.83940138 66.9366464 -57 58 C-62.40498292 46.49708764 -64.20457428 33.84680454 -61.09375 21.36328125 C-57.28428514 11.82740928 -51.78616821 4.38970028 -43 -1 C-42.01193359 -1.62261719 -42.01193359 -1.62261719 -41.00390625 -2.2578125 C-29.2898564 -8.22968105 -10.88128097 -7.05764529 0 0 Z " fill="#050505" transform="translate(638,538)"/>
<path d="M0 0 C7.10662279 4.68233626 11.46964338 9.04486818 14.00390625 17.3203125 C14.52855122 21.99678683 14.47119106 26.62338317 14.39453125 31.32421875 C14.38887146 32.64324692 14.38321167 33.96227509 14.37738037 35.3212738 C14.36223469 38.79850562 14.32305227 42.27505051 14.27856445 45.75201416 C14.23736966 49.31179517 14.21931816 52.87168907 14.19921875 56.43164062 C14.156544 63.39483889 14.08628798 70.35747182 14.00390625 77.3203125 C8.06390625 77.3203125 2.12390625 77.3203125 -3.99609375 77.3203125 C-4.49109375 73.3603125 -4.49109375 73.3603125 -4.99609375 69.3203125 C-5.46917969 69.71863281 -5.94226563 70.11695313 -6.4296875 70.52734375 C-15.59704199 77.8719494 -24.27969 79.54077122 -35.99609375 78.3203125 C-41.84885778 76.73802455 -46.85346801 73.75195864 -50.99609375 69.3203125 C-54.35016796 63.36447979 -56.2957145 57.13171766 -54.99609375 50.3203125 C-52.87957601 43.61461448 -49.72476243 39.07944482 -43.59375 35.5703125 C-30.58515952 29.31053964 -18.18363003 29.86930878 -3.99609375 30.3203125 C-4.2812359 28.56121346 -4.57608711 26.80368647 -4.875 25.046875 C-5.03814697 24.06799316 -5.20129395 23.08911133 -5.36938477 22.08056641 C-6.22664006 18.30490286 -7.46762112 16.23188704 -9.99609375 13.3203125 C-15.63328734 11.44124797 -22.60132023 11.26160347 -28.30078125 13.0390625 C-32.07440177 15.04734123 -34.18921573 17.49398257 -35.99609375 21.3203125 C-41.53659488 20.75205597 -46.03325341 18.69144733 -50.99609375 16.3203125 C-50.67359322 10.99905376 -47.79055906 7.77485696 -43.99609375 4.3203125 C-32.10941585 -3.76687371 -13.26964318 -6.78911977 0 0 Z " fill="#040404" transform="translate(716.99609375,535.6796875)"/>
<path d="M0 0 C0 7.92 0 15.84 0 24 C5.61 24 11.22 24 17 24 C17 28.62 17 33.24 17 38 C11.39 38 5.78 38 0 38 C0.09355251 44.33571069 0.19965128 50.67104005 0.31738281 57.00634766 C0.35566602 59.16156253 0.39052004 61.31684116 0.421875 63.47216797 C0.4675395 66.57021876 0.52553212 69.66783091 0.5859375 72.765625 C0.59748871 73.72929993 0.60903992 74.69297485 0.62094116 75.68585205 C0.64081085 76.58648376 0.66068054 77.48711548 0.68115234 78.41503906 C0.69447601 79.20557678 0.70779968 79.9961145 0.7215271 80.81060791 C1.03482451 83.27379504 1.69148962 84.89711819 3 87 C5.33937907 88.16968953 6.77369368 88.13364221 9.375 88.125 C10.14585937 88.12757813 10.91671875 88.13015625 11.7109375 88.1328125 C14.3152886 88.05288166 14.3152886 88.05288166 18 87 C18 91.95 18 96.9 18 102 C8.82469727 104.62151507 -0.29161764 105.89482483 -9.0625 101.33203125 C-14.46189927 97.61994425 -17.34866014 93.30957139 -19 87 C-19.27005939 83.22996043 -19.23278076 79.47331946 -19.1953125 75.6953125 C-19.1924826 74.61619598 -19.18965271 73.53707947 -19.18673706 72.42526245 C-19.1755766 68.99172701 -19.1504793 65.55845609 -19.125 62.125 C-19.11496487 59.79167044 -19.10583995 57.45833678 -19.09765625 55.125 C-19.07565075 49.41656534 -19.04114908 43.70832746 -19 38 C-22.3 38 -25.6 38 -29 38 C-29 33.38 -29 28.76 -29 24 C-25.7 24 -22.4 24 -19 24 C-19 18.72 -19 13.44 -19 8 C-3.21621622 0 -3.21621622 0 0 0 Z " fill="#040404" transform="translate(773,510)"/>
<path d="M0 0 C3.70654622 1.55339246 6.08370297 3.82562416 8.9140625 6.6484375 C9.83960938 7.57140625 10.76515625 8.494375 11.71875 9.4453125 C12.43417969 10.16702637 12.43417969 10.16702637 13.1640625 10.90332031 C14.62024027 12.37020527 16.08677484 13.8261189 17.5546875 15.28125 C18.47765625 16.20679688 19.400625 17.13234375 20.3515625 18.0859375 C21.19541504 18.9320459 22.03926758 19.7781543 22.90869141 20.64990234 C26.46307302 24.64412105 27.3067296 27.49423591 27.375 32.8125 C27.40335937 33.80894531 27.43171875 34.80539062 27.4609375 35.83203125 C26.12313802 45.02656838 18.58359577 50.77046753 12.25 56.9375 C11.25581484 57.91661193 10.26231887 58.89642416 9.26953125 59.87695312 C6.8530289 62.2582637 4.4297888 64.63226054 2 67 C-0.93745916 65.67365058 -3.02143479 64.2306634 -5.29980469 61.95898438 C-5.92014587 61.34494751 -6.54048706 60.73091064 -7.17962646 60.0982666 C-7.83706848 59.43677612 -8.4945105 58.77528564 -9.171875 58.09375 C-9.8542926 57.41324585 -10.53671021 56.7327417 -11.23980713 56.03161621 C-12.67779427 54.59498803 -14.11326692 53.15583915 -15.54638672 51.71435547 C-17.74877028 49.50123571 -19.96164933 47.29901528 -22.17578125 45.09765625 C-23.57095454 43.70116197 -24.96550762 42.30404773 -26.359375 40.90625 C-27.02491394 40.24475952 -27.69045288 39.58326904 -28.37615967 38.9017334 C-28.98389221 38.28769653 -29.59162476 37.67365967 -30.21777344 37.04101562 C-31.02574371 36.23065857 -31.02574371 36.23065857 -31.85003662 35.40393066 C-33 34 -33 34 -33 32 C-31.70703125 30.72827148 -31.70703125 30.72827148 -29.8125 29.18359375 C-23.52486454 23.83716298 -17.80961532 17.91593963 -12 12.0625 C-10.83226626 10.88973991 -9.66429926 9.71721202 -8.49609375 8.54492188 C-5.66136766 5.69928311 -2.82981176 2.85052547 0 0 Z " fill="#FEFDFD" transform="translate(311,479)"/>
<path d="M0 0 C5.10872316 5.59526822 7.89615353 11.23781369 8.25 18.875 C7.90599322 25.9180861 5.785672 31.74677843 0.72265625 36.7578125 C-7.53265913 43.31769842 -16.10268115 43.73654932 -26.375 42.875 C-33.08797803 41.22289637 -37.53702313 36.42889775 -41.375 30.875 C-44.34200375 25.54070603 -45.41384597 19.90829773 -44.375 13.875 C-41.96157789 6.59004068 -37.90095248 0.96793187 -31.375 -3.125 C-20.17954702 -8.03836494 -10.22188244 -6.43600006 0 0 Z " fill="#060606" transform="translate(512.375,434.125)"/>
<path d="M0 0 C1.05840088 0.01244751 1.05840088 0.01244751 2.13818359 0.02514648 C8.8831976 0.24305278 13.9367884 1.46727015 18.953125 6.05078125 C20.52397544 7.77032869 21.86737513 9.52078024 23.1875 11.4375 C24.115625 12.7678125 24.115625 12.7678125 25.0625 14.125 C27.42457876 21.08000969 27.17754151 28.96571406 24.15234375 35.69921875 C20.69171366 41.93395717 16.0468495 46.28536765 9.1875 48.4375 C1.67875408 49.49940001 -7.57491541 50.01494655 -14.171875 45.83984375 C-20.05661953 40.80978831 -24.34419781 35.83954055 -25.18359375 27.94921875 C-25.31646709 20.29727756 -25.33283927 14.27659901 -19.8125 8.4375 C-14.08110662 2.61391263 -8.16694479 -0.12338829 0 0 Z " fill="#050505" transform="translate(604.8125,428.5625)"/>
<path d="M0 0 C0 5.94 0 11.88 0 18 C-3.279375 18.37125 -3.279375 18.37125 -6.625 18.75 C-14.16456051 19.84445233 -17.65026084 20.88818327 -22.3125 27.0625 C-24.44171597 30.76891298 -25.12649614 33.45472287 -25.20532227 37.6550293 C-25.22526749 38.59577805 -25.24521271 39.53652679 -25.26576233 40.50578308 C-25.29083107 42.02465874 -25.29083107 42.02465874 -25.31640625 43.57421875 C-25.33718735 44.61318802 -25.35796844 45.65215729 -25.37937927 46.72261047 C-25.44480656 50.04417253 -25.50372821 53.36581416 -25.5625 56.6875 C-25.60569169 58.9381593 -25.64930619 61.18881052 -25.69335938 63.43945312 C-25.80048103 68.95955369 -25.90176789 74.47973437 -26 80 C-32.27 80 -38.54 80 -45 80 C-45 53.93 -45 27.86 -45 1 C-38.73 1 -32.46 1 -26 1 C-25.67 4.96 -25.34 8.92 -25 13 C-23.4840625 11.14375 -23.4840625 11.14375 -21.9375 9.25 C-15.46973372 1.85265597 -9.72551992 0 0 0 Z " fill="#070707" transform="translate(941,533)"/>
<path d="M0 0 C6.3970553 3.7957631 9.58074322 9.34729642 11.5625 16.375 C11.99942409 19.34701841 12.08790963 22.24876943 12.0625 25.25 C12.05677979 26.03721436 12.05105957 26.82442871 12.04516602 27.63549805 C11.84840168 34.06247058 10.71714048 39.27753587 6.5625 44.375 C0.30452452 50.23586106 -5.6399105 50.79161423 -13.9140625 50.71484375 C-19.74241856 50.15268524 -23.01790905 47.9376516 -26.95703125 43.765625 C-33.00268259 36.16935992 -33.35570438 26.71381036 -32.4375 17.375 C-30.54237895 10.16572507 -27.48408874 3.97151683 -20.9375 0.0625 C-14.37913445 -2.93526037 -6.58032711 -2.96052524 0 0 Z " fill="#FCFCFC" transform="translate(850.4375,548.625)"/>
<path d="M0 0 C0 5.94 0 11.88 0 18 C-2.475 18.12375 -2.475 18.12375 -5 18.25 C-11.72928042 18.87356266 -16.56516084 20.56516084 -21.375 25.375 C-25.22858909 31.60002852 -25.32982201 37.5363224 -25.4140625 44.6484375 C-25.43342865 45.66096588 -25.4527948 46.67349426 -25.4727478 47.71670532 C-25.53230723 50.93605242 -25.57883448 54.15543574 -25.625 57.375 C-25.66320151 59.56381728 -25.7022545 61.75261988 -25.7421875 63.94140625 C-25.83798942 69.29415093 -25.92210775 74.64696596 -26 80 C-31.94 80 -37.88 80 -44 80 C-44 54.26 -44 28.52 -44 2 C-38.06 2 -32.12 2 -26 2 C-25.67 5.96 -25.34 9.92 -25 14 C-23.7934375 12.1746875 -23.7934375 12.1746875 -22.5625 10.3125 C-16.81850327 2.59913297 -9.37571152 0 0 0 Z " fill="#020202" transform="translate(567,533)"/>
<path d="M0 0 C15.51 0 31.02 0 47 0 C47 6.2020535 45.91089775 8.45676208 42.57421875 13.2421875 C41.88088188 14.27123703 41.88088188 14.27123703 41.17353821 15.32107544 C39.69099904 17.51473462 38.18972109 19.69478532 36.6875 21.875 C35.71944586 23.30123077 34.7526375 24.72830795 33.78710938 26.15625 C30.87697968 30.45057115 27.94052485 34.72645793 25 39 C23.93820177 40.54582149 22.87651625 42.09172041 21.81494141 43.63769531 C19.21264206 47.42698589 16.6062246 51.21339686 14 55 C24.56 55 35.12 55 46 55 C46 58.3 46 61.6 46 65 C29.83 65 13.66 65 -3 65 C-3 57.12772296 -3 57.12772296 -0.76171875 54.16015625 C-0.27687012 53.49798096 0.20797852 52.83580566 0.70751953 52.15356445 C1.23716309 51.46351318 1.76680664 50.77346191 2.3125 50.0625 C3.42171118 48.55813028 4.52975797 47.05290141 5.63671875 45.546875 C6.20052246 44.78955078 6.76432617 44.03222656 7.34521484 43.25195312 C9.85899654 39.83101444 12.24113499 36.32459003 14.625 32.8125 C19.64682933 25.46581725 24.80621006 18.22614253 30 11 C15.15 10.505 15.15 10.505 0 10 C0 6.7 0 3.4 0 0 Z " fill="#070707" transform="translate(418,412)"/>
<path d="M0 0 C3.63 0 7.26 0 11 0 C11.33 8.91 11.66 17.82 12 27 C14.97 24.525 14.97 24.525 18 22 C22.80006368 19.59996816 30.2785339 20.15270768 35.30859375 21.71875 C39.68025899 24.0503048 41.99951912 27.04401409 43.56420898 31.66699219 C44.19562186 35.04726192 44.12210451 38.4030782 44.09765625 41.828125 C44.0962413 42.57713074 44.09482635 43.32613647 44.09336853 44.09783936 C44.08778659 46.48193412 44.07523745 48.86593378 44.0625 51.25 C44.05748266 52.86979031 44.05292016 54.48958209 44.04882812 56.109375 C44.03782308 60.07295312 44.02057091 64.03646045 44 68 C40.37 68 36.74 68 33 68 C32.99589111 67.05680908 32.99178223 66.11361816 32.98754883 65.1418457 C32.96051141 61.62806324 32.91137159 58.11601318 32.84741211 54.6027832 C32.82427549 53.08498832 32.80984652 51.56703387 32.80444336 50.04907227 C32.79512078 47.8611357 32.75406849 45.67569313 32.70703125 43.48828125 C32.6913208 42.17384033 32.67561035 40.85939941 32.65942383 39.50512695 C31.84624275 35.18271277 30.40425134 33.69720474 27 31 C23.59091863 30.15429569 20.44514943 30.35985399 17 31 C13.90200019 33.19126816 13.19647888 34.41056336 12 38 C11.84820986 40.3555448 11.75100711 42.71475123 11.68359375 45.07421875 C11.66281265 45.7580513 11.64203156 46.44188385 11.62062073 47.1464386 C11.55533846 49.3266921 11.49633983 51.50706405 11.4375 53.6875 C11.39429447 55.16732986 11.35067953 56.64714783 11.30664062 58.12695312 C11.19967917 61.75117622 11.09835177 65.37553189 11 69 C7.37 69 3.74 69 0 69 C0 46.23 0 23.46 0 0 Z " fill="#020202" transform="translate(528,408)"/>
<path d="M0 0 C3.10485394 2.50113234 5.46336676 5.23923352 7.25 8.8125 C7.91362352 16.62283834 7.4224361 22.04523213 2.25 28.1875 C-2.34192383 30.67479208 -6.64703876 30.68045235 -11.75 29.8125 C-15.17517066 28.16083668 -17.21452668 25.92806941 -18.875 22.46875 C-20.60039663 17.23093879 -20.85949047 11.55307407 -18.76953125 6.390625 C-14.46382632 -0.86945593 -8.08431467 -3.49095406 0 0 Z " fill="#FAFAFA" transform="translate(611.75,438.1875)"/>
<path d="M0 0 C3.50536595 2.82376702 5.82096705 5.52540116 7.25 9.8125 C7.78476918 15.78751722 7.76280722 20.7249861 4.25 25.8125 C1.92479087 28.57368585 0.26210609 29.64716359 -3.30859375 30.23046875 C-7.90504726 30.46122693 -11.60432144 30.51260265 -15.3125 27.5625 C-19.87355545 22.41669385 -20.19020902 18.56475978 -20.06640625 11.796875 C-19.5045462 6.49735549 -17.5776901 3.38634426 -13.5 -0.125 C-8.78891921 -1.94519031 -4.65103495 -2.00840146 0 0 Z " fill="#FAFAFA" transform="translate(500.75,438.1875)"/>
<path d="M0 0 C1.18239258 0.00676758 1.18239258 0.00676758 2.38867188 0.01367188 C4.32164761 0.02538688 6.25458393 0.04332002 8.1875 0.0625 C8.81117661 10.76894851 8.81117661 10.76894851 6.5 15.5625 C1.1002494 21.40006821 -3.85328527 23.97824152 -11.875 24.4375 C-16.38825195 24.00766648 -18.39508753 22.99171069 -21.8125 20.0625 C-24.39786545 16.65451828 -24.25031946 13.2217849 -23.8125 9.0625 C-20.93431658 4.19172806 -17.08365633 1.93998172 -11.671875 0.48828125 C-7.76779442 -0.09306408 -3.94041644 -0.04293832 0 0 Z " fill="#F4F4F4" transform="translate(704.8125,576.9375)"/>
<path d="M0 0 C3.95945752 2.28430242 6.90875552 5.19294236 8.6875 9.4375 C9.1825 13.3975 9.1825 13.3975 9.6875 17.4375 C-3.1825 17.4375 -16.0525 17.4375 -29.3125 17.4375 C-28.08747402 10.0873441 -26.09363767 5.60678738 -20.1875 1 C-13.84034812 -2.44953906 -6.6807797 -2.97205789 0 0 Z " fill="#F9F9F9" transform="translate(624.3125,547.5625)"/>
</svg>
